<?xml version="1.0" encoding="UTF-8" standalone="no"?>
<svg
   viewBox="0 0 140 40"
   version="1.1"
   id="svg3"
   sodipodi:docname="logo-mod.svg"
   inkscape:version="1.4 (e7c3feb100, 2024-10-09)"
   class="italic font-new-zen font-bold text-2xl"
   xmlns:inkscape="http://www.inkscape.org/namespaces/inkscape"
   xmlns:sodipodi="http://sodipodi.sourceforge.net/DTD/sodipodi-0.dtd"
   xmlns="http://www.w3.org/2000/svg"
   xmlns:svg="http://www.w3.org/2000/svg">
  <defs
     id="defs3" />
  <sodipodi:namedview
     id="namedview3"
     pagecolor="#505050"
     bordercolor="#eeeeee"
     borderopacity="1"
     inkscape:showpageshadow="0"
     inkscape:pageopacity="0"
     inkscape:pagecheckerboard="0"
     inkscape:deskcolor="#505050"
     inkscape:zoom="3.567943"
     inkscape:cx="72.030299"
     inkscape:cy="50.449236"
     inkscape:window-width="1354"
     inkscape:window-height="794"
     inkscape:window-x="0"
     inkscape:window-y="0"
     inkscape:window-maximized="1"
     inkscape:current-layer="g1" />
  <g
     id="g1">
    <path
       id="logo-icon"
       d="M 12.671393,35.855611 C 14.634822,37.92961 11.23065,41.48679 9.0136947,39.329028 6.7096243,37.087501 10.378491,33.433153 12.671393,35.855611 Z M 9.8021937,4.3245817 15.471346,4.8629056 c 0.367445,-0.8566273 1.581466,-0.9794813 2.146594,-0.2568766 0.532739,0.682398 -0.0034,1.4965847 0.05138,1.6216724 0.09493,0.2166697 2.407938,2.7295918 2.593336,2.774266 0.239006,0.05696 0.736006,-0.222254 1.091167,-0.2099686 1.812654,0.06031 2.554245,2.5978032 0.88008,3.5616482 -0.320537,0.18428 -0.878963,0.176463 -1.027505,0.424404 -0.05026,0.08376 -0.548376,1.786967 -0.537207,1.884133 0.01117,0.108335 0.255759,0.261344 0.325005,0.416587 0.470195,1.059895 -0.93034,2.094102 -1.76463,1.206202 -0.163062,-0.174228 -0.224488,-0.492532 -0.356277,-0.565128 -0.480248,-0.263577 -1.421756,0.03016 -1.970131,-0.231188 -0.453443,1.151477 -1.325706,1.454144 -2.50287,1.372614 l -1.235241,1.958962 c -0.06478,0.275863 0.515987,0.710319 0.233422,1.562479 -0.515986,1.556895 -2.995403,1.120205 -2.811122,-0.684632 0.02569,-0.253526 0.263578,-0.497 0.11727,-0.685748 C 10.180807,18.782259 9.3543353,17.708963 8.8975418,17.562655 8.505526,17.43645 8.0967573,17.800545 7.463501,17.443151 6.9240604,17.138251 6.8659839,16.389958 6.7632334,16.300609 6.6526648,16.20456 4.1252236,15.640549 3.9052033,15.62938 3.593601,15.612627 3.1926503,16.050434 2.7034682,16.06272 1.7027667,16.088407 1.08738,14.927996 1.646924,14.101524 1.8055173,13.868101 2.1863646,13.722911 2.2611938,13.598939 2.5404074,13.138795 2.0210702,11.239026 2.206468,10.583433 -0.70963848,10.945294 -0.74314411,6.5761599 2.152859,6.8955803 2.6319895,6.9480724 2.8129199,7.2708432 3.2429087,7.3322702 L 6.1802354,5.0605887 C 5.4341767,2.238298 9.5084611,1.4620843 9.8044275,4.3256986 Z M 15.367478,10.456111 15.95271,6.729169 15.274779,5.6111979 C 14.509734,5.6368855 10.03785,4.805946 9.7050275,5.0170314 9.6648207,5.042719 9.4771892,5.6525215 9.2437667,5.725117 l 3.6197243,3.8598483 c 0.698034,0.1585933 1.079999,0.1440742 1.365913,0.8912497 z M 7.9001909,11.030174 V 6.3952296 L 6.4181254,5.7965956 3.5667965,7.9711108 c 0.1172696,0.4623778 0.2423573,0.7940834 0.088232,1.2709803 l 4.2440461,1.7880829 z m 7.3712381,0.111686 c -0.321654,0.0335 -0.736007,-0.06701 -1.038675,0.02234 -0.463494,0.137373 -0.712553,1.0934 -1.698735,0.423287 -0.867795,-0.590815 -0.167528,-1.308953 -0.330588,-1.670813 L 8.62838,6.1484048 8.3569844,6.2399868 8.4753709,11.178716 c 0.061427,0.178697 0.7628114,0.486949 0.950443,0.492532 0.4735462,0.01452 0.7516431,-0.587465 1.4954681,-0.03462 0.908002,0.674581 0.06143,1.334641 0.111685,2.001403 0.04244,0.559544 0.983949,4.04748 1.224072,4.593622 0.09828,0.224488 0.17423,0.429988 0.453443,0.213319 l 1.0934,-1.905353 c -1.198384,-1.420639 -0.655593,-3.145063 1.191684,-3.494637 l 0.275863,-1.902003 z m 4.13236,-0.670113 0.284798,-1.0018177 -2.401236,-2.6335424 c -0.170879,-0.2021505 -0.547258,-0.275863 -0.65336,0.029038 L 16.053227,10.471747 Z M 7.9001909,11.700287 3.3210885,9.8027519 c 1.3446925,1.5993351 2.6558794,3.2690321 4.0754012,4.8024721 0.1340226,0.145192 0.2792135,0.359628 0.5037012,0.33394 z M 2.8743468,10.583433 v 2.847978 c 0.7415912,0.389782 1.0420251,0.737123 1.2274228,1.564713 L 6.94193,15.722079 7.1128088,15.324479 2.8754637,10.582316 Z M 19.347947,11.14186 h -3.406405 l -0.225605,2.043844 0.839875,0.629904 2.958547,-2.395652 -0.166412,-0.276979 z M 8.4586181,12.035344 v 2.06618 c 0,0.05808 0.1038674,0.892366 0.1284383,0.932572 0.020103,0.03239 0.351809,0.111687 0.4891821,0.235658 0.7002677,0.629906 0.1719955,1.440741 0.3261215,1.786966 0.1440742,0.32277 1.491,1.074414 1.736708,1.512221 l 0.275863,0.05473 0.173113,-0.278098 -1.2855,-4.749981 c -0.112802,-0.147428 -0.5349727,-0.108339 -0.7873817,-0.329475 -0.4188204,-0.367446 -0.0994,-1.197268 -1.057661,-1.23189 z m 12.0419229,0.356276 -0.491417,-0.247941 -3.124957,2.239292 0.08488,0.425522 2.022622,0.225603 c 0.380848,-0.291498 0.507053,-0.633256 1.069947,-0.553958 l 0.438924,-2.087402 z m 8.920314,12.118985 c -0.154125,0.166412 -0.806368,0.403185 -0.851042,0.663412 -0.06031,0.350692 0.941508,0.514869 0.877848,0.863328 -0.218905,0.254643 -0.402068,0.374146 -0.520454,0.714787 -0.281448,0.806369 0.06478,1.658528 -0.04244,2.526324 -0.227838,1.831641 -2.176748,1.02974 -3.394119,0.963845 -4.170335,-0.227838 -8.377524,1.359212 -11.445523,4.131244 0.523804,-1.514454 1.457495,-3.057946 2.365497,-4.390354 2.115322,-3.105971 4.822577,-5.153165 6.363835,-8.713697 C 26.655524,12.304505 23.71373,1.1616505 12.652406,0.52616047 11.202729,0.44351326 9.9239309,0.64007961 8.5122272,0.75399874 8.3893731,0.76405043 8.0956405,0.8355291 8.1235618,0.64454702 15.833207,-1.5791099 25.684978,2.0227451 27.746691,10.337725 c 0.575181,2.320823 0.619854,3.770499 1.841693,5.976287 0.351809,0.636606 2.000286,2.765331 2.08405,3.175217 0.189865,0.930339 -2.137659,1.301134 -2.385601,1.816005 -0.482481,1.000701 0.804135,2.478299 0.134022,3.205371 z"
       inkscape:label="LogoIcon" />
    <text
       id="logo-text"
       inkscape:label="LogoText"
       x="45.106667"
       y="27.365"><tspan
         id="tspan3"
         style="font-style:italic;font-variant:normal;font-weight:bold;font-stretch:normal;font-size:30px;font-family:'New Zen';-inkscape-font-specification:'New Zen Bold Italic'">CogTec</tspan></text>
  </g>
</svg>
