<?xml version="1.0" encoding="UTF-8" standalone="no"?>
<svg
   id="Camada_2"
   data-name="Camada 2"
   viewBox="0 0 120 40.000001"
   version="1.1"
   sodipodi:docname="logo.svg"
   width="120"
   height="40"
   inkscape:version="1.4 (e7c3feb100, 2024-10-09)"
   xmlns:inkscape="http://www.inkscape.org/namespaces/inkscape"
   xmlns:sodipodi="http://sodipodi.sourceforge.net/DTD/sodipodi-0.dtd"
   xmlns="http://www.w3.org/2000/svg"
   xmlns:svg="http://www.w3.org/2000/svg">
  <sodipodi:namedview
     id="namedview8"
     pagecolor="#505050"
     bordercolor="#eeeeee"
     borderopacity="1"
     inkscape:showpageshadow="0"
     inkscape:pageopacity="0"
     inkscape:pagecheckerboard="0"
     inkscape:deskcolor="#505050"
     inkscape:zoom="1.5451214"
     inkscape:cx="88.666172"
     inkscape:cy="94.490957"
     inkscape:window-width="1354"
     inkscape:window-height="794"
     inkscape:window-x="0"
     inkscape:window-y="0"
     inkscape:window-maximized="1"
     inkscape:current-layer="Camada_2" />
  <defs
     id="defs1">
    <style
       id="style1">.cls-1 { letter-spacing: -.03em; }
.cls-2, .cls-3 { fill: #fff; }
.cls-4 { letter-spacing: 0em; }
.cls-5 { letter-spacing: -.07em; }
.cls-3 { font-family: NewZen-ExtraBoldItalic, 'New Zen';        font-size: 228.77px;        font-style: italic;        font-weight: 700; }
.cls-6 { letter-spacing: -.01em; }
</style>
  </defs>
  <g
     id="Camada_1-2"
     data-name="Camada 1"
     transform="matrix(0.11168543,0,0,0.11168543,-0.00155287,1.2209169e-4)">
    <path
       d="m 263.44,219.46 c -1.38,1.49 -7.22,3.61 -7.62,5.94 -0.54,3.14 8.43,4.61 7.86,7.73 -1.96,2.28 -3.6,3.35 -4.66,6.4 -2.52,7.22 0.58,14.85 -0.38,22.62 -2.04,16.4 -19.49,9.22 -30.39,8.63 -37.34,-2.04 -75.01,12.17 -102.48,36.99 4.69,-13.56 13.05,-27.38 21.18,-39.31 18.94,-27.81 43.18,-46.14 56.98,-78.02 C 238.68,110.17 212.34,10.4 113.3,4.71 100.32,3.97 88.87,5.73 76.23,6.75 75.13,6.84 72.5,7.48 72.75,5.77 c 69.03,-19.91 157.24,12.34 175.7,86.79 5.15,20.78 5.55,33.76 16.49,53.51 3.15,5.7 17.91,24.76 18.66,28.43 1.7,8.33 -19.14,11.65 -21.36,16.26 -4.32,8.96 7.2,22.19 1.2,28.7 z"
       id="path1" />
    <path
       d="m 87.78,38.72 50.76,4.82 c 3.29,-7.67 14.16,-8.77 19.22,-2.3 4.77,6.11 -0.03,13.4 0.46,14.52 0.85,1.94 21.56,24.44 23.22,24.84 2.14,0.51 6.59,-1.99 9.77,-1.88 16.23,0.54 22.87,23.26 7.88,31.89 -2.87,1.65 -7.87,1.58 -9.2,3.8 -0.45,0.75 -4.91,16 -4.81,16.87 0.1,0.97 2.29,2.34 2.91,3.73 4.21,9.49 -8.33,18.75 -15.8,10.8 -1.46,-1.56 -2.01,-4.41 -3.19,-5.06 -4.3,-2.36 -12.73,0.27 -17.64,-2.07 -4.06,10.31 -11.87,13.02 -22.41,12.29 l -11.06,17.54 c -0.58,2.47 4.62,6.36 2.09,13.99 -4.62,13.94 -26.82,10.03 -25.17,-6.13 0.23,-2.27 2.36,-4.45 1.05,-6.14 -4.69,-2.06 -12.09,-11.67 -16.18,-12.98 -3.51,-1.13 -7.17,2.13 -12.84,-1.07 -4.83,-2.73 -5.35,-9.43 -6.27,-10.23 -0.99,-0.86 -23.62,-5.91 -25.59,-6.01 -2.79,-0.15 -6.38,3.77 -10.76,3.88 -8.96,0.23 -14.47,-10.16 -9.46,-17.56 1.42,-2.09 4.83,-3.39 5.5,-4.5 2.5,-4.12 -2.15,-21.13 -0.49,-27 C -6.34,98 -6.64,58.88 19.29,61.74 c 4.29,0.47 5.91,3.36 9.76,3.91 L 55.35,45.31 C 48.67,20.04 85.15,13.09 87.8,38.73 Z m 49.83,54.9 5.24,-33.37 -6.07,-10.01 c -6.85,0.23 -46.89,-7.21 -49.87,-5.32 -0.36,0.23 -2.04,5.69 -4.13,6.34 l 32.41,34.56 c 6.25,1.42 9.67,1.29 12.23,7.98 z M 70.75,98.76 V 57.26 L 57.48,51.9 31.95,71.37 c 1.05,4.14 2.17,7.11 0.79,11.38 l 38,16.01 z m 66,1 c -2.88,0.3 -6.59,-0.6 -9.3,0.2 -4.15,1.23 -6.38,9.79 -15.21,3.79 -7.77,-5.29 -1.5,-11.72 -2.96,-14.96 l -32.01,-33.74 -2.43,0.82 1.06,44.22 c 0.55,1.6 6.83,4.36 8.51,4.41 4.24,0.13 6.73,-5.26 13.39,-0.31 8.13,6.04 0.55,11.95 1,17.92 0.38,5.01 8.81,36.24 10.96,41.13 0.88,2.01 1.56,3.85 4.06,1.91 l 9.79,-17.06 c -10.73,-12.72 -5.87,-28.16 10.67,-31.29 l 2.47,-17.03 z m 37,-6 2.55,-8.97 -21.5,-23.58 c -1.53,-1.81 -4.9,-2.47 -5.85,0.26 l -5.2,32.29 z m -103,11 -41,-16.99 c 12.04,14.32 23.78,29.27 36.49,43 1.2,1.3 2.5,3.22 4.51,2.99 z m -45,-10 v 25.5 c 6.64,3.49 9.33,6.6 10.99,14.01 l 25.43,6.5 1.53,-3.56 -37.94,-42.46 z m 147.5,5 h -30.5 l -2.02,18.3 7.52,5.64 26.49,-21.45 -1.49,-2.48 z m -97.5,8 v 18.5 c 0,0.52 0.93,7.99 1.15,8.35 0.18,0.29 3.15,1 4.38,2.11 6.27,5.64 1.54,12.9 2.92,16 1.29,2.89 13.35,9.62 15.55,13.54 l 2.47,0.49 1.55,-2.49 -11.51,-42.53 c -1.01,-1.32 -4.79,-0.97 -7.05,-2.95 -3.75,-3.29 -0.89,-10.72 -9.47,-11.03 z m 107.82,3.19 -4.4,-2.22 -27.98,20.05 0.76,3.81 18.11,2.02 c 3.41,-2.61 4.54,-5.67 9.58,-4.96 l 3.93,-18.69 z"
       id="path2" />
    <path
       d="m 113.47,321.04 c 17.58,18.57 -12.9,50.42 -32.75,31.1 -20.63,-20.07 12.22,-52.79 32.75,-31.1 z"
       id="path3" />
    <text
       transform="translate(352.55,262.93)"
       id="text8"
       style="font-size:238.766px"
       x="0"
       y="0"><tspan
         x="0"
         y="0"
         id="tspan3"
         style="font-style:italic;font-variant:normal;font-weight:bold;font-stretch:normal;font-size:238.766px;font-family:'New Zen';-inkscape-font-specification:'New Zen Bold Italic';text-align:start;letter-spacing:0px;text-anchor:start">CogTec</tspan></text>
  </g>
</svg>
