<svg width="134" height="149" viewBox="0 0 134 149" fill="none" xmlns="http://www.w3.org/2000/svg">
<g id="Ativo 12 1" clip-path="url(#clip0_119_110)">
<g id="Camada 1">
<path id="Vector" d="M101.989 6.47796C102.087 18.2878 101.38 30.1696 97.8088 41.4991C92.7379 57.5841 80.4113 74.272 60.8149 72.1897C51.4155 71.1905 46.2942 66.5382 40.1022 60.7137C37.5967 58.3575 35.6876 53.1359 34.1306 50.064L33.9318 50.1817C33.8815 48.4115 33.103 46.7783 32.1448 45.3084C32.4371 45.2027 32.164 44.8232 32.1041 44.6407C28.7243 34.3776 27.7158 23.7471 27.6008 12.9989C27.5984 12.7323 27.7038 12.3 27.4355 12.1367C27.9002 11.0462 27.6463 10.2897 27.4355 9.1488L27.596 6.47556C52.3904 6.5332 77.1944 6.4035 101.991 6.47556L101.989 6.47796ZM39.9393 10.722H31.8167C32.1257 20.483 33.4335 30.417 36.0852 39.8394C38.1692 47.2418 41.9466 56.8948 47.3266 62.604C48.656 64.0138 50.9077 66.0578 52.9318 65.9833C50.534 63.7857 48.9387 60.8002 47.6596 57.882C44.8163 51.4042 43.1731 43.8312 42.0784 36.8731C40.7226 28.2626 40.1046 19.4382 39.9393 10.7244V10.722Z" fill="#CAD0CC"/>
<path id="Vector_2" d="M44.4884 112.439C58.2857 112.307 72.1093 112.437 85.909 112.439C87.0444 112.439 88.1846 112.439 89.32 112.439C90.5895 112.439 91.8662 112.423 93.1406 112.437C93.416 112.439 93.864 112.336 94.0316 112.598C93.0424 112.514 91.9477 112.658 90.9464 112.598C91.0734 112.874 91.4423 112.929 91.6842 113.218C91.7872 113.34 92.0818 113.83 92.0818 113.933V140.267C74.0591 140.418 56.0149 140.063 37.9922 140.267L38.064 114.003C38.1048 113.544 38.4808 112.982 38.8809 112.749C39.8198 112.204 43.1997 112.451 44.4884 112.439ZM55.2076 114.169H40.3444C40.3157 114.169 39.9372 114.534 39.9372 114.563V121.559C42.3949 118.18 46.1747 116.52 50.1367 115.314L55.2076 114.169ZM52.4458 133.82C63.4094 133.914 74.3801 133.744 85.3461 133.828C86.321 133.799 86.9318 133.261 87.0468 132.329L86.9629 120.135C86.8551 119.652 86.2755 119.177 85.7892 119.073C84.7017 118.84 82.2944 119.052 81.032 119.04C69.8505 118.946 58.6115 119.011 47.4515 119.16C46.8047 119.503 46.5149 120.161 46.4334 120.848C46.1388 123.399 46.1891 129.257 46.4263 131.861C46.5077 132.754 46.8454 133.585 47.8515 133.784C48.9917 134.008 51.1643 133.808 52.4434 133.82H52.4458Z" fill="#3E3E3E"/>
<path id="Vector_3" d="M106.375 6.47778C106.411 7.2872 106.327 8.11103 106.37 8.92045C106.382 9.1246 106.538 9.32876 106.538 9.3864V11.9011C106.538 12.3334 106.382 13.102 106.375 13.7097C106.25 24.626 105.278 34.5744 101.826 44.9959C101.29 46.6148 100.681 48.1375 100.039 49.7131C96.1372 59.2724 89.7439 68.3321 79.9829 72.9845C79.6068 73.8083 79.5493 74.7282 79.2523 75.5785C78.2007 78.6 76.3012 80.9394 73.7908 82.9545C74.6292 92.999 78.7421 104.693 89.296 108.532L89.3176 112.439C88.1822 112.439 87.042 112.439 85.9066 112.439L85.8275 108.664C77.2234 105.39 72.9956 97.0028 71.1991 88.7069C71.108 88.2914 71.0242 87.0352 70.8853 86.8094C70.7056 86.5164 69.7331 86.992 69.3451 87.0592C66.9401 87.4651 64.9472 87.2946 62.6812 86.4203C62.2763 86.2642 60.3074 85.3251 60.1612 85.0825C60.0151 84.8399 60.0966 84.5637 60.0798 84.2995C60.063 84.0353 60.0918 83.7735 60.0798 83.5141L60.3265 82.8824C61.129 82.9497 61.8524 83.3196 62.6452 83.4685C67.9078 84.4508 73.101 81.1027 75.0221 76.4407C70.0277 77.5888 65.0238 77.7833 60.0103 76.5848C58.1923 76.1501 56.4844 75.4392 54.719 74.8675C54.5321 74.2815 54.2231 73.7026 54.1944 73.0181C48.4383 70.3016 43.5039 65.9567 40.1001 60.7183C46.2921 66.5404 51.4134 71.1951 60.8128 72.1943C80.4092 74.2743 92.7358 57.5888 97.8067 41.5037C101.378 30.1743 102.085 18.2924 101.987 6.48259C103.445 6.48739 104.914 6.48019 106.373 6.48259L106.375 6.47778Z" fill="#92959D"/>
<path id="Vector_4" d="M85.9064 112.439C72.1067 112.437 58.2855 112.307 44.4858 112.439L44.5026 108.524C53.1714 105.666 57.6771 96.7482 59.3514 88.546C59.6389 87.1385 59.7395 85.695 60.0796 84.2971C60.0964 84.5613 60.0102 84.8279 60.1611 85.0801C60.312 85.3323 62.2762 86.2618 62.681 86.4179C64.947 87.2946 66.9399 87.4651 69.3449 87.0568C69.7329 86.992 70.7055 86.5164 70.8851 86.807C71.024 87.0328 71.1079 88.289 71.1989 88.7045C72.9954 97.0004 77.2232 105.388 85.8274 108.661L85.9064 112.437V112.439ZM61.0545 109.137V91.9998L60.6545 94.6778C59.8952 98.5496 57.0854 102.698 54.3164 105.522C53.0301 106.834 51.4899 107.864 50.1724 109.137H61.0545Z" fill="#CAD0CC"/>
<path id="Vector_5" d="M94.029 112.596C94.5536 112.639 95.4902 113.095 95.4902 113.616V140.265L99.3874 140.421C98.4485 140.298 97.2723 140.51 96.3022 140.421C96.5226 140.808 97.0184 141.144 97.1071 141.605C97.2196 142.201 97.2077 144.898 97.1071 145.518C96.9705 146.349 96.2327 146.661 95.4926 146.863C75.2206 147.103 54.9295 146.678 34.6552 146.87C34.0923 146.954 33.3282 146.373 33.1198 145.919C32.7509 145.116 32.818 141.538 33.4408 140.805C34.1642 139.955 36.8206 140.272 37.9943 140.26C56.017 140.056 74.0613 140.411 92.084 140.26V113.926C92.084 113.823 91.7893 113.333 91.6863 113.211C91.4444 112.922 91.0755 112.867 90.9486 112.591C91.9498 112.649 93.0445 112.507 94.0338 112.591L94.029 112.596Z" fill="#2F2F2F"/>
<path id="Vector_6" d="M117.094 0.031415C116.778 0.504576 116.986 0.288411 117.341 0.338849C127.231 1.78715 132.585 10.441 130.393 19.7408C128.975 25.755 124.28 30.8325 119.607 34.7691C116.014 37.7954 103.74 45.6782 102.87 49.6989C102.36 52.0551 104.116 53.3112 106.209 52.0671C107.268 52.7924 107.354 52.425 108.322 52.2232C109.187 53.1503 109.894 53.9789 109.467 55.3C108.933 56.9572 107.587 56.6858 106.372 57.5697C103.694 57.2118 101.213 55.3744 100.475 52.8213C100.159 51.7236 100.307 50.7629 100.037 49.7085C100.679 48.1353 101.287 46.6101 101.824 44.9913C101.788 45.5053 101.919 45.3155 102.123 45.0465C109.232 35.5977 130.781 27.1577 128.062 13.3856C126.941 7.70767 119.053 2.42604 113.92 6.62684C111.748 8.4042 112.193 9.51144 111.621 11.7884C111.153 13.6426 108.914 14.2671 107.357 13.143C106.974 12.8668 106.861 12.5377 106.535 12.2904L106.37 13.705C106.377 13.0974 106.533 12.3312 106.533 11.8965V9.38174C106.533 9.3241 106.375 9.11994 106.365 8.91579C106.322 8.10637 106.408 7.28254 106.37 6.47313L106.693 8.98784C107.362 4.15056 112.116 0.322037 117.092 0.0266113L117.094 0.031415Z" fill="#CAD0CC"/>
<path id="Vector_7" d="M15.4134 0.03125C15.5236 0.410739 15.8566 0.300255 16.132 0.357899C19.2747 1.0136 21.9216 2.49313 23.6678 5.16877C24.7529 6.82843 26.4944 11.2406 24.8344 12.845C24.5134 13.1549 23.9816 13.0996 24.0199 13.5512C22.0007 12.9219 22.5827 10.7266 21.9863 9.151C20.7623 5.90613 17.7728 4.86133 14.4361 5.37532C12.2324 4.85653 9.72204 5.80045 7.95426 7.03979C0.219644 12.4655 4.0115 21.9504 9.31962 27.5466C14.8074 33.3302 29.4622 41.3187 31.4144 48.296C32.6648 52.7659 30.2335 56.5031 25.6464 57.5719C24.8032 57.4518 23.172 56.9643 22.5516 56.3998C20.7934 54.8026 22.1971 51.8628 24.5469 51.954C25.7278 51.9997 26.9591 53.1453 28.1543 51.9036C30.212 49.7684 25.2368 45.3178 23.699 43.9703C15.1356 36.4694 2.35152 30.5057 0.653205 18.009C-0.580406 8.91803 5.70262 0.530831 15.4134 0.03125ZM14.1103 4.11917C13.8708 0.360301 9.42741 2.46431 7.60933 3.87898C7.17577 4.21524 4.16959 7.19111 4.5289 7.5778C7.262 5.54585 10.4766 3.36499 14.1079 4.11917H14.1103Z" fill="#CAD0CC"/>
<path id="Vector_8" d="M95.4905 146.87C96.5732 146.858 98.135 147.011 99.1338 146.86C99.6752 146.779 100.073 146.303 100.363 146.24C101.637 145.971 104.109 146.368 105.472 146.404C107.118 146.449 118.692 146.651 119.205 147.187C119.466 147.458 118.912 147.576 118.759 147.612C115.118 148.424 109.343 148.15 105.474 148.28C78.6439 149.176 50.4362 149.36 23.6225 148.124C21.1912 148.011 17.476 148.186 15.2076 147.622C14.9728 147.564 14.6686 147.441 14.6016 147.189C15.2747 147.11 15.9573 146.947 16.6328 146.875C21.7948 146.315 27.3353 146.445 32.5572 146.245C32.871 146.233 33.2087 146.406 33.1177 145.931C33.3261 146.385 34.0902 146.963 34.6531 146.882C54.9275 146.687 75.221 147.115 95.4905 146.875V146.87Z" fill="#757575"/>
<path id="Vector_9" d="M106.212 52.0694C104.118 53.3136 102.365 52.0574 102.873 49.7012C103.742 45.6781 116.016 37.7977 119.609 34.7714C124.282 30.8324 128.977 25.7574 130.395 19.7432C132.587 10.4433 127.233 1.78948 117.343 0.34118C116.989 0.28834 116.778 0.506906 117.096 0.0337455C129.303 -0.689206 136.23 11.147 132.486 21.7679C128.309 33.6234 115.81 37.8097 107.996 46.1729C106.837 47.4147 104.133 50.6451 106.214 52.0718L106.212 52.0694Z" fill="#92959D"/>
<path id="Vector_10" d="M14.4385 5.37772C10.0766 6.05023 6.29431 9.83311 5.84877 14.1228C4.3373 28.7163 25.5482 35.1844 32.1426 45.3106C33.1008 46.7805 33.8793 48.4137 33.9296 50.1839C34.0565 54.7089 30.3222 58.2444 25.6464 57.5719C30.2335 56.5031 32.6624 52.7634 31.4144 48.296C29.4622 41.3187 14.8098 33.3302 9.31965 27.5466C4.01153 21.9504 0.219671 12.4655 7.95429 7.04219C9.72446 5.80044 12.2324 4.85892 14.4361 5.37772H14.4385Z" fill="#92959D"/>
<path id="Vector_11" d="M54.7212 74.8652C56.4866 75.4369 58.1945 76.1478 60.0125 76.5825C65.026 77.7811 70.0299 77.5865 75.0243 76.4384C73.1032 81.098 67.91 84.4485 62.6474 83.4662C61.8546 83.3173 61.1312 82.9474 60.3287 82.8801L60.082 83.5118C60.07 83.2524 60.1587 82.7889 60.0461 82.6015C59.9814 82.4934 58.4268 81.3982 58.0483 80.9995C56.2686 79.1165 55.4805 77.2286 54.7212 74.8652Z" fill="#CAD0CC"/>
<path id="Vector_12" d="M27.4335 9.15106C27.6443 10.2919 27.8982 11.0485 27.4335 12.1389C26.8539 13.5032 25.4693 14.0052 24.0225 13.5536C23.9818 13.0997 24.5136 13.1573 24.837 12.8475C26.497 11.2431 24.7555 6.83089 23.6704 5.17123C21.9218 2.49799 19.2749 1.01606 16.1346 0.360361C15.8592 0.302717 15.5262 0.413201 15.416 0.0337115C21.3302 -0.271321 26.3916 3.53078 27.4359 9.15106H27.4335Z" fill="#92959D"/>
<path id="Vector_13" d="M99.3899 140.423C99.6798 140.462 99.9049 140.534 100.113 140.745C100.873 141.526 100.513 145.1 100.365 146.24C100.077 146.301 99.6774 146.776 99.136 146.86C98.1372 147.011 96.5754 146.858 95.4927 146.87C96.2352 146.668 96.9706 146.353 97.1071 145.525C97.2101 144.903 97.2221 142.208 97.1071 141.612C97.0185 141.151 96.5251 140.815 96.3023 140.428C97.2724 140.515 98.4509 140.303 99.3875 140.428L99.3899 140.423Z" fill="#1D1D1D"/>
<path id="Vector_14" d="M106.375 57.5719C107.589 56.688 108.936 56.9594 109.47 55.3022C109.894 53.9836 109.19 53.1525 108.325 52.2254C109.29 52.0237 109.726 51.7955 110.713 52.1942C112.081 52.749 112.517 54.1589 112.114 55.4991C111.568 57.3245 108.016 57.7881 106.375 57.5695V57.5719Z" fill="#92959D"/>
<path id="Vector_15" d="M39.9396 10.7219C40.1048 19.4357 40.7228 28.2601 42.0786 36.8706C43.1733 43.8287 44.8165 51.4041 47.6598 57.8794C48.9413 60.7977 50.5342 63.7831 52.932 65.9808C50.9079 66.0553 48.6539 64.0113 47.3269 62.6014C41.9469 56.8923 38.1694 47.2393 36.0854 39.8369C33.4338 30.4145 32.1259 20.4781 31.8169 10.7195H39.9396V10.7219Z" fill="#FCF0C2"/>
<path id="Vector_16" d="M81.0343 119.042C81.123 128.935 68.2695 132.125 60.1396 133.17L52.4481 133.821C51.169 133.809 48.9964 134.008 47.8562 133.785C46.8502 133.588 46.5124 132.754 46.431 131.861C46.1938 129.257 46.1411 123.399 46.4382 120.848C46.5172 120.161 46.8094 119.503 47.4562 119.16C58.6162 119.011 69.8552 118.948 81.0367 119.04L81.0343 119.042ZM63.9794 120.615H48.7928C48.7305 120.615 48.2251 120.973 48.2251 121.009V128.006C50.6085 124.78 54.2854 123.063 58.1347 121.953L63.9818 120.615H63.9794Z" fill="#CAD0CC"/>
<path id="Vector_17" d="M81.0345 119.042C82.2968 119.052 84.7042 118.84 85.7917 119.076C86.2755 119.179 86.8576 119.655 86.9654 120.137L87.0492 132.331C86.9343 133.263 86.321 133.801 85.3485 133.83C74.3826 133.744 63.4118 133.917 52.4482 133.823L60.1397 133.172C68.2696 132.127 81.1255 128.938 81.0345 119.045V119.042Z" fill="#92959D"/>
<path id="Vector_18" d="M55.2074 114.169L50.1365 115.314C46.1745 116.52 42.3947 118.177 39.937 121.559V114.563C39.937 114.534 40.3155 114.169 40.3442 114.169H55.2074Z" fill="#5C5C5C"/>
<path id="Vector_19" d="M61.0545 109.137H50.1724C51.4898 107.864 53.0324 106.836 54.3163 105.522C57.0854 102.698 59.8951 98.5495 60.6545 94.6778L61.0545 91.9998V109.137Z" fill="#FCF0C2"/>
<path id="Vector_20" d="M14.1103 4.11925C10.4789 3.36507 7.26192 5.54594 4.53121 7.57788C4.1719 7.19119 7.17808 4.21772 7.61164 3.87906C9.42972 2.46439 13.8731 0.360382 14.1127 4.11925H14.1103Z" fill="#FCF0C2"/>
<path id="Vector_21" d="M63.9793 120.615L58.1323 121.953C54.2829 123.063 50.606 124.78 48.2227 128.006V121.009C48.2227 120.973 48.7305 120.615 48.7904 120.615H63.9769H63.9793Z" fill="#FCF0C2"/>
</g>
</g>
<defs>
<clipPath id="clip0_119_110">
<rect width="133" height="149" fill="white" transform="translate(0.5)"/>
</clipPath>
</defs>
</svg>
